<?xml version="1.0" encoding="UTF-8"?>
<svg id="Layer_1" xmlns="http://www.w3.org/2000/svg" version="1.1" viewBox="0 0 30 30">
  <!-- Generator: Adobe Illustrator 29.7.1, SVG Export Plug-In . SVG Version: 2.1.1 Build 8)  -->
  <defs>
    <style>
      .st0 {
        fill: #4d4d4d;
      }
    </style>
  </defs>
  <path class="st0" d="M23.01,11.66c.53-2.88,1.4-4.95,2.09-6.24.27-.5-.28-1.06-.78-.77-5.82,3.39-8.37,8.34-8.69,12.3-.27,3.42,2.06,6.94,5.6,7.59,3.54.64,6.92-1.71,7.57-5.24.67-3.71-1.94-7.27-5.79-7.64ZM8.49,11.66c.53-2.88,1.4-4.95,2.09-6.24.27-.5-.28-1.06-.78-.77C3.99,8.05,1.44,12.99,1.12,16.96c-.27,3.42,2.06,6.94,5.6,7.59,3.54.64,6.92-1.71,7.57-5.24.67-3.71-1.94-7.27-5.79-7.64h-.01Z"/>
</svg>