<svg xmlns="http://www.w3.org/2000/svg" xmlns:xlink="http://www.w3.org/1999/xlink" viewBox="0 0 100 100"><defs><linearGradient id="a" x1="50.6" y1="67.65" x2="50.6" y2="67.43" gradientUnits="userSpaceOnUse"><stop offset="0" stop-color="#ff9a9e"/><stop offset="1" stop-color="#fecfef"/></linearGradient><linearGradient id="b" x1="26.76" x2="26.76" y2="16.11" xlink:href="#a"/><linearGradient id="c" x1="60.49" x2="60.49" y2=".18" xlink:href="#a"/><linearGradient id="d" x1="26.89" y1="99.82" x2="26.89" y2="81.88" xlink:href="#a"/><linearGradient id="e" x1="73.16" y1="99.77" x2="73.16" y2="81.82" xlink:href="#a"/></defs><path d="m48.68 67.43.13.22h3.72c-1.3 0-2.59-.08-3.85-.22z" style="fill:url(#a)"/><path style="fill:url(#b)" d="M23.87 16.11h-5.08v51.54h15.93V16.11H23.87z"/><path d="M81.19 16.11A34.07 34.07 0 0 0 70.34 5.26 33.569 33.569 0 0 0 52.53.18H34.72v15.93h17.81c9.84 0 17.81 7.97 17.81 17.81 0 8.08-5.38 14.9-12.75 17.08-1.6.47-3.3.73-5.05.73-.51 0-1.02-.02-1.52-.07H39.59l9.11 15.78a33.807 33.807 0 0 0 16.99-2.43c1.63-.69 3.18-1.5 4.67-2.43a34.07 34.07 0 0 0 10.85-10.85c3.22-5.17 5.08-11.27 5.08-17.81s-1.86-12.64-5.08-17.81z" style="fill:url(#c)"/><circle cx="26.89" cy="90.85" r="8.97" style="fill:url(#d)"/><circle cx="73.16" cy="90.79" r="8.97" style="fill:url(#e)"/></svg>